<svg version="1.0" xmlns="http://www.w3.org/2000/svg" fill="antiquewhite" width="15" height="15" viewBox="0 0 1157 1280"><path d="M682 1c-76.2 5.5-148.1 28.4-214 68-126.9 76.2-224.5 210.8-269.9 372-5 18-12.1 47.3-12.1 50.3 0 1.6-5.2 1.7-72.3 1.7H41.3l-1.1 2.5C29.4 519.1 0 588.2 0 589.8v2.2h172.2l-.6 10.7c-1.5 27.3-1.7 48.6-.7 69.8.7 12.6 1.4 24.2 1.7 25.7l.6 2.8-66.2.2-66.2.3L38 709c-16.5 43.1-35 92.2-35 93 0 .7 33.2 1 92.8 1h92.7l4.3 17.1c4.8 18.9 14.6 49.7 22.1 69.6 46.3 122.3 127.2 226.9 229.6 296.5 106.9 72.8 232.9 104.8 355 90.2 103.2-12.3 209.3-57.6 308.2-131.8l16.2-12.1-.1-46.5c0-25.6-.4-59.9-.7-76.2l-.6-29.8-7.4 10.3c-22.2 30.4-56.2 66.5-82.1 87.1-64.8 51.4-139.1 82.5-223.5 93.5-46.2 6.1-98.3 5.3-140.5-1.9-94.6-16.3-179.8-61.6-248.2-131.9-37.8-38.8-66.3-78.8-91.2-128.1-15.1-29.8-30.9-70.3-38.6-98.8-.6-2.4-1.4-5-1.7-5.8-.4-1.2 42.1-1.4 323.4-1.4h323.8l17.8-50.3c9.7-27.6 17.7-50.5 17.7-51 0-.4-157.7-.7-350.4-.7H271.3l-.6-3.8c-.4-2-1.1-13.8-1.7-26.3-1.2-23 .1-76.4 1.8-78.1.4-.4 167.5-.9 371.2-1l370.4-.3 19.2-49 19.2-49-382.4-.3c-317.7-.2-382.4-.4-382.4-1.5 0-2 7.6-29.3 12-43.1 22.1-69.5 55.7-131 100.9-185.1 17.6-21.1 50.3-51.9 73.7-69.6 98.6-74.3 221.1-100.7 351.4-75.8 116.1 22.2 215.8 83.3 286.7 175.6 4.5 5.9 7.3 8.8 7.6 7.9 4.9-12.8 38.7-108.6 38.6-109.7-.1-3.3-53-44.5-84.9-66.1C966.5 54.2 864.4 13.7 761 2.5 743.5.6 699.3-.2 682 1z"/></svg>