<?xml version="1.0" standalone="no"?>
<!DOCTYPE svg PUBLIC "-//W3C//DTD SVG 20010904//EN"
 "http://www.w3.org/TR/2001/REC-SVG-20010904/DTD/svg10.dtd">
<svg version="1.0" xmlns="http://www.w3.org/2000/svg"
 width="100px" height="100px" viewBox="0 0 1280.000000 853.000000"
 preserveAspectRatio="xMidYMid meet">
<metadata>
Created by potrace 1.15, written by Peter Selinger 2001-2017
</metadata>
<g transform="translate(0.000000,853.000000) scale(0.100000,-0.100000)"
fill="#000000" stroke="none">
<path d="M6145 7170 l-170 -109 -5 -147 -5 -148 -95 -17 c-148 -26 -294 -72
-405 -127 -109 -54 -465 -274 -540 -335 -244 -196 -434 -499 -500 -797 -34
-155 -31 -440 7 -618 7 -33 8 -56 2 -62 -8 -8 -176 -35 -469 -76 -141 -19
-204 -31 -285 -55 -52 -15 -103 -19 -250 -21 l-185 -3 -3 49 c-2 36 3 61 22
100 35 71 59 90 141 111 201 51 361 160 507 344 109 136 163 280 189 502 43
371 -94 660 -414 872 -80 53 -198 112 -267 133 -192 60 -459 57 -660 -6 -163
-52 -347 -170 -441 -282 -206 -248 -237 -740 -68 -1079 99 -199 264 -343 503
-439 58 -23 107 -47 109 -54 3 -7 -1 -52 -9 -102 -7 -49 -13 -90 -14 -92 0 -1
-20 -22 -44 -46 -70 -67 -79 -131 -51 -367 31 -268 28 -487 -7 -552 -7 -13
-38 -44 -68 -68 -105 -84 -200 -263 -200 -376 0 -25 11 -91 24 -147 20 -84 25
-138 30 -321 15 -526 36 -842 61 -901 14 -33 14 -34 -12 -34 -143 0 -533 -202
-890 -461 -57 -41 -126 -90 -154 -109 -58 -40 -236 -230 -287 -307 -25 -39
-33 -59 -28 -77 6 -26 80 -94 276 -256 219 -182 205 -173 394 -229 180 -53
191 -53 216 2 37 81 23 118 -88 216 -61 54 -75 74 -102 139 -40 95 -81 271
-69 294 32 60 689 452 842 502 132 43 182 81 225 169 39 81 52 146 52 265 0
53 7 160 15 237 8 77 18 206 22 288 3 81 9 147 12 147 3 0 19 -21 36 -48 72
-117 310 -471 342 -510 l34 -42 -33 -27 c-141 -114 -326 -378 -473 -673 -113
-228 -115 -237 -122 -427 -7 -189 -2 -203 69 -221 72 -18 513 -45 658 -40 194
7 230 27 230 127 0 61 -30 88 -170 153 -69 33 -147 70 -175 83 -27 14 -81 47
-120 76 -38 28 -76 54 -83 58 -17 10 62 154 213 391 133 210 158 243 235 320
59 59 90 125 90 190 0 55 -28 149 -61 208 -16 29 -59 119 -95 200 -126 279
-265 540 -352 661 l-32 44 23 31 c116 155 157 232 182 340 20 90 28 276 16
396 -5 57 -9 105 -8 106 1 1 70 -6 152 -16 83 -10 209 -26 281 -34 160 -19
198 -32 283 -95 67 -49 120 -71 177 -71 17 0 69 -19 115 -42 46 -23 98 -42
116 -42 41 0 73 29 73 66 0 45 -45 83 -127 107 -107 32 -103 48 12 53 113 4
148 22 153 81 3 32 -1 39 -30 57 -29 19 -43 20 -112 15 -99 -8 -99 8 0 48 38
15 79 39 92 53 28 32 29 81 2 109 -18 19 -19 24 -6 34 11 9 20 3 49 -36 40
-54 157 -170 232 -229 198 -157 552 -307 905 -383 80 -17 154 -35 165 -40 20
-8 20 -17 17 -920 l-2 -911 -45 0 c-24 0 -90 9 -147 20 -100 19 -103 21 -156
72 -164 161 -237 361 -277 763 -10 94 -18 171 -20 173 -1 1 -62 20 -136 42
l-134 40 -350 -5 c-192 -3 -363 -8 -380 -10 l-30 -5 6 -157 c21 -523 153 -869
430 -1126 128 -120 439 -335 594 -411 183 -90 365 -146 573 -176 l82 -12 0
-248 0 -248 177 -132 c172 -127 179 -131 218 -126 22 3 110 10 195 16 85 6
165 13 177 16 l23 4 2 362 3 361 154 33 c287 62 574 164 744 267 134 80 197
130 306 242 223 229 351 509 407 885 24 168 25 514 1 635 -24 120 -61 235
-104 320 l-35 70 33 25 c19 14 64 53 101 87 98 92 105 95 688 270 47 14 128
42 180 62 l95 37 1 -191 c1 -277 25 -364 159 -554 l84 -120 -58 -93 c-107
-171 -219 -390 -331 -648 -18 -41 -52 -113 -76 -160 -66 -131 -76 -235 -31
-324 10 -22 50 -69 86 -105 48 -47 114 -136 223 -301 138 -207 248 -390 248
-409 0 -6 -109 -81 -175 -119 -22 -13 -104 -50 -182 -83 -171 -73 -203 -101
-203 -179 0 -67 27 -96 100 -111 68 -13 432 -13 642 0 177 12 224 25 234 67
12 46 -3 324 -21 381 -18 62 -170 354 -243 471 -119 189 -238 340 -341 433
l-69 62 25 26 c13 14 91 124 171 245 l147 218 3 -53 c1 -30 9 -143 17 -251 8
-109 15 -246 15 -306 0 -234 84 -363 270 -412 116 -30 844 -469 884 -533 11
-17 -6 -97 -46 -220 -39 -121 -67 -166 -139 -223 -122 -97 -144 -146 -104
-233 15 -33 23 -41 45 -41 40 0 255 58 316 85 51 22 435 305 537 395 26 23 47
50 47 60 0 33 -188 271 -277 350 -26 23 -66 54 -88 69 -22 14 -83 58 -135 97
-206 154 -387 264 -609 373 -145 70 -286 117 -321 106 -24 -8 -24 -6 -5 32 28
55 68 509 84 933 8 225 8 225 46 335 38 109 38 110 26 190 -17 127 -63 209
-181 325 -65 64 -100 106 -104 125 -19 94 -26 203 -26 423 1 267 -3 301 -50
437 -17 50 -37 122 -45 160 -7 39 -19 96 -26 127 -16 70 -13 73 107 154 46 30
108 78 139 106 170 155 285 435 285 695 0 221 -83 474 -208 629 -167 208 -536
344 -822 304 -253 -36 -480 -149 -661 -329 -136 -137 -202 -256 -249 -455 -45
-185 -2 -460 99 -645 60 -111 190 -243 334 -340 103 -70 220 -111 404 -141 80
-13 133 -47 185 -116 33 -45 36 -95 10 -191 -14 -49 -30 -77 -84 -140 -37 -43
-84 -103 -105 -132 -38 -55 -38 -55 -128 -77 -49 -12 -187 -48 -305 -79 -118
-31 -224 -59 -236 -62 -18 -4 -22 1 -28 29 -4 24 -27 53 -80 103 -40 39 -92
99 -116 135 -51 78 -65 90 -102 90 -61 0 -89 -77 -48 -130 28 -35 25 -43 -10
-25 -43 22 -96 20 -114 -7 -15 -21 -15 -21 -65 25 -36 34 -58 47 -79 47 -38 0
-79 -33 -87 -71 -8 -35 6 -60 79 -138 l51 -54 -117 7 c-125 7 -160 -1 -190
-42 -12 -18 -20 -16 -150 39 -75 33 -287 107 -470 167 l-333 108 -3 737 c-1
416 2 737 7 737 16 0 136 -99 172 -142 99 -119 161 -254 191 -418 11 -58 22
-114 24 -126 3 -20 12 -21 170 -27 360 -15 521 -9 744 27 l205 32 -2 101 c-7
361 -156 713 -410 968 -233 235 -569 394 -986 466 -61 10 -113 19 -114 19 -2
0 -3 110 -3 245 0 227 -1 245 -17 245 -16 0 -161 10 -363 24 l-65 5 -170 -109z
m-177 -1867 c1 -480 -1 -703 -8 -703 -20 0 -125 58 -197 109 -144 101 -229
213 -280 366 -25 73 -27 94 -27 240 -1 124 3 175 17 225 39 141 163 349 250
421 36 30 119 49 202 45 l40 -1 3 -702z m-1679 -743 c-13 -23 -58 -72 -100
-111 -58 -52 -82 -81 -95 -117 -20 -52 -32 -65 -54 -56 -21 8 -249 38 -487 65
-191 22 -202 25 -212 47 -6 12 -11 27 -11 31 0 4 60 16 133 25 213 28 460 71
637 111 91 20 167 39 169 41 2 2 13 4 23 4 18 0 18 -2 -3 -40z m241 30 c0 -5
-4 -10 -10 -10 -5 0 -10 5 -10 10 0 6 5 10 10 10 6 0 10 -4 10 -10z m3455
-640 c-3 -5 -24 -10 -45 -10 -21 0 -42 5 -45 10 -4 6 13 10 45 10 32 0 49 -4
45 -10z m-1112 -477 c72 -36 110 -64 172 -127 133 -134 191 -274 202 -486 16
-326 -118 -614 -360 -774 -45 -29 -92 -57 -104 -61 l-23 -6 0 750 c0 536 3
751 11 751 6 0 52 -21 102 -47z"/>
</g>
</svg>
